<?xml version="1.0" standalone="no"?>
<!DOCTYPE svg PUBLIC "-//W3C//DTD SVG 20010904//EN"
 "http://www.w3.org/TR/2001/REC-SVG-20010904/DTD/svg10.dtd">
<svg version="1.0" xmlns="http://www.w3.org/2000/svg"
 width="500.000000pt" height="500.000000pt" viewBox="0 0 500.000000 500.000000"
 preserveAspectRatio="xMidYMid meet">
<metadata>
Created by potrace 1.11, written by Peter Selinger 2001-2013
</metadata>
<g transform="translate(0.000000,500.000000) scale(0.100000,-0.100000)"
fill="#000000" stroke="none">
<path d="M0 3810 l0 -1190 430 0 431 0 -3 -87 -3 -88 -427 -3 -428 -2 0 -130
0 -130 430 0 431 0 -3 -87 -3 -88 -427 -3 -428 -2 0 -1000 0 -1000 2500 0
2500 0 0 1000 0 1000 -427 2 -428 3 -3 88 -3 87 431 0 430 0 0 130 0 130 -427
2 -428 3 -3 88 -3 87 431 0 430 0 0 1190 0 1190 -2500 0 -2500 0 0 -1190z
m1919 -690 c116 -193 211 -353 211 -355 0 -3 -49 -5 -109 -5 l-108 0 -149 260
c-81 143 -151 260 -154 260 -3 0 -70 -116 -150 -258 l-145 -257 -113 -3 -112
-3 201 333 c110 183 207 343 215 356 13 20 22 22 108 22 l93 0 212 -350z
m1756 33 c105 -174 200 -333 213 -355 l24 -39 -113 3 -113 3 -142 249 c-78
136 -147 253 -152 258 -6 6 -64 -87 -157 -251 l-147 -261 -110 0 -110 0 22 38
c12 20 108 180 213 354 l192 318 95 0 95 -1 190 -316z m-1090 -1333 c61 -38
87 -119 60 -188 -44 -109 -173 -136 -256 -53 -133 133 35 340 196 241z"/>
</g>
</svg>
